<?xml version="1.0" encoding="UTF-8"?>
<svg id="Rasterized_Logo_Thicker_2" xmlns="http://www.w3.org/2000/svg" version="1.1" viewBox="0 0 639.27105 935.75057">
  <!-- Generator: Adobe Illustrator 29.3.1, SVG Export Plug-In . SVG Version: 2.1.0 Build 151)  -->
  <path d="M12.1391,480.9305c.91.20999.75-.56.92-1.01999,2.08-5.70999,2.43-11.67999,2.86-17.67001.68-9.57001,1.54-19.12,2.33-28.67999.53-6.45001,1.05-12.89999,1.59-19.35999.74-8.76001,1.5-17.51999,2.23-26.28.55-6.60999,1.06-13.23001,1.59-19.84.74-9.16,1.5-18.32001,2.24-27.48001.55-6.76999,1.06-13.54999,1.61-20.32001.73-9.07999,1.49-18.16,2.24-27.23999.52-6.37,1.04-12.73999,1.58-19.12.75-8.92,1.53-17.84,2.28-26.75999.54-6.45,1.06-12.89999,1.6-19.36.73-8.60001,1.48-17.2,2.21-25.8.54-6.37,1.05-12.74001,1.58-19.12.76-9.16,1.53-18.31999,2.29-27.48.53-6.37,1.03-12.75,1.55-19.12.76-9.24,1.54-18.48,2.29-27.72.55-6.77,1.05-13.55,1.61-20.32.72-8.76,1.49-17.52,2.22-26.28.54-6.45,1.05-12.91,1.59-19.36.3-3.58.53-7.18,1.03-10.74.27-1.87.71-3.88,1.69-5.44,3.01-4.78,6.32-9.38,9.44-13.95.45.09.66.07.73.16,3.01,3.63,6.05,7.23,8.96,10.94.92,1.17,1.57,2.6,2.15,3.99,17.11,41.25,34.21,82.51,51.28,123.77,16.61,40.16,33.19,80.33,49.79001,120.5.06.14999.12.29999.17.45001,1.25,3.87,3.85001,5.44,7.97,5.39001,13.19-.14999,26.39-.06,39.59-.06,49.50002,0,99.00999-.03,148.50999.01001,28.23001.01999,56.45999.14999,84.69.23001,4.72.01001,6.32999-1.01999,8.19-5.5,9.67999-23.31,19.36002-46.63,29.01001-69.95999,23-55.59,45.98001-111.18,68.95999-166.78,1.34003-3.25,2.67999-6.5,4.01001-9.75,1.09003-2.65,2.77002-4.8,5.02002-6.6,2.04999-1.64,3.92999-3.5,5.97998-5.35,2.59003,2.69,5.27002,5.21,7.62,8.01,1.02002,1.22,1.69,2.94,1.97998,4.54,1.64001,8.96,2.84998,17.99,3.59003,27.08.81,10.12,1.79999,20.22,2.67999,30.33.56,6.45,1.06,12.9,1.59998,19.36.72998,8.68,1.48999,17.36,2.21002,26.04.56,6.69,1.06,13.38,1.59998,20.08.73999,9.16,1.48999,18.31999,2.22998,27.48.53998,6.77,1.06,13.55,1.62,20.32001.71997,8.75999,1.47998,17.52,2.21997,26.28.53998,6.45,1.06,12.89999,1.60999,19.35001.72998,8.60001,1.48999,17.2,2.22998,25.79999.54999,6.37,1.07001,12.73999,1.60999,19.10999.75,8.84,1.5,17.67999,2.23999,26.51999.53003,6.37,1.04999,12.75,1.57001,19.12.77002,9.32001,1.53998,18.63998,2.28998,27.95999.54999,6.76999,1.06,13.54999,1.59998,20.32001.71997,8.92001,1.47998,17.84,2.21002,26.76001.54999,6.69,1.06,13.39001,1.59998,20.07999.73999,9.16,1.47998,18.32001,2.25,27.48001.48999,5.81.96997,11.63,1.56,17.42999.15002,1.48001.60999,2.95001,1.09003,4.38.58002,1.73999,1.31,3.42999,2.01001,5.13.53003,1.28.41998,2.47-.28998,3.66-1.77002,2.94-3.32001,6.03-5.27002,8.85001-48.13,69.56-96.29999,139.09003-144.45001,208.63-32.72,47.26001-65.41998,94.53998-98.16,141.78998-16.75,24.19-33.54001,48.34003-50.37,72.47998-1.31,1.88-2.85999,3.66998-4.60001,5.15002-1.28,1.08002-3.06,1.57001-4.62,2.32001h-1.92001c-4.07001-1.42999-6.85001-4.27002-9.29001-7.78998-48.41-69.84998-96.94-139.62-145.34-209.46997-49.36-71.22998-98.6-142.54999-147.91-213.82001-1.65-2.39001-3.05-4.87-3.73-7.72-.07-.31-.55-.51999-.84-.78v-5.28l-.00983.03989ZM184.89909,301.04052c-.02.34-.09.59-.03999.81,44.99001,188.42999,90,376.85001,135.00998,565.28.04999.22998.19.44.31.65002.03.06.12.09998.20001.13.04001.02002.10999-.01001.23999-.03003,45.13-188.89001,90.26999-377.79999,135.42999-566.83002H184.89909v-.00998ZM36.9591,486.02053c.54.79999.99,1.47,1.44,2.12,12.68,18.25,25.32,36.53003,38.04,54.75,33.43,47.92999,66.03999,96.41998,99.77,144.15002,26.94,38.12,53.2,76.72998,79.76001,115.12,12.82999,18.53998,25.66,37.07001,38.5,55.59998.47.67999,1,1.32001,1.76001,2.31.04999-.78003.12-1.02002.07001-1.23999-43.70999-183.07001-87.42-366.14001-131.14-549.20001-.09-.38-.25999-.75-.39999-1.12-.03-.07001-.08-.16-.14999-.17999-.06-.01999-.14999.03-.47.10001-42.29,59.04999-84.68,118.25-127.18,177.60001l-.00005-.01001ZM475.92911,307.72051c-44,184.38-87.86002,368.14999-131.70999,551.92001-.01999.07001.01999.16998.07001.21997.03.03998.13.02002.17001.02002,86.38998-124.64001,172.75998-249.27002,259.13004-373.88-42.42999-59.26001-84.85999-118.51999-127.66-178.28998l-.00006.00998ZM602.77911,447.45052c-.53998-6.69-1.02002-12.87-1.53998-19.04999-.72998-8.84-1.5-17.67999-2.22998-26.51001-.53998-6.53-1.06-13.06-1.60999-19.59-.73999-8.84-1.5-17.67999-2.22998-26.51999-.54999-6.60999-1.07001-13.22-1.62-19.82999-.72998-8.76001-1.48999-17.51001-2.21997-26.26999-.54999-6.60999-1.07001-13.22-1.62-19.82999-.72998-8.76001-1.48999-17.51001-2.21997-26.27-.54999-6.61-1.07001-13.22-1.62-19.83-.72998-8.67999-1.47998-17.36-2.21002-26.04001-.54999-6.61-1.06-13.22-1.59998-19.83-.76001-9.16-1.53003-18.31-2.29999-27.47-.52002-6.21001-1.02002-12.42-1.53998-18.63-.73999-8.75999-1.5-17.51-2.23999-26.27-.54999-6.61-1.06-13.22-1.59998-19.83-.76001-9.16-1.53003-18.31-2.31-27.47-.20001-2.41-.44-4.82-.65002-7.23-.71997.64-1.04999,1.33-1.34998,2.04-26.83002,64.88-53.66,129.75999-80.5,194.64-1.67999,4.06-3.34,8.13-5.07001,12.16-.57001,1.31-.59,2.42999.41,3.51999.32001.35001.57001.76999.85001,1.16,13.48001,18.76001,26.98001,37.51001,40.42999,56.29001,24.96002,34.83002,49.89001,69.66998,74.84003,104.5.45001.62.95001,1.20001,1.72998,2.17001l.01978-.01004ZM37.9591,446.56051c.15.06.3.12.45.17999.38-.48001.78-.94,1.13-1.42999,5.27-7.34,10.53-14.67999,15.79-22.01999,33.31-46.45001,66.59999-92.91,99.95-139.32999,1.17-1.62,1.37-2.88.59-4.76001-19.94-48.03-39.82-96.08-59.7-144.13-8.55-20.67-17.06-41.35-25.59-62.03-.3-.73-.66-1.45-.99-2.17-.87,5.65-1.34,11.14-1.79,16.63-.55,6.61-1.07,13.22-1.62,19.83-.74,8.84-1.49,17.68-2.23,26.52-.54,6.53-1.06,13.06-1.6,19.59-.74,8.92-1.51,17.84-2.25,26.75-.54,6.45-1.05,12.89999-1.59,19.35001-.74,8.84-1.5,17.67-2.24,26.50999-.55,6.61-1.07,13.22-1.61,19.83-.73,8.84-1.49,17.67999-2.23,26.51999-.54,6.53-1.06,13.06-1.61,19.59-.74,8.84-1.49,17.67999-2.22,26.51999-.54,6.53-1.07,13.06-1.61,19.59-.73,8.76001-1.49,17.51999-2.21,26.26999-.55,6.60999-1.07,13.22-1.62,19.82999-.74,8.92001-1.5,17.84-2.25,26.75-.57,6.76999-1.16,13.53-1.72,20.29999-.42,5.09-.82,10.19-1.23,15.28v.03006ZM296.5791,860.26052c-.04001-.04999-.07999-.10999-.12-.15997-.04001.04999-.12.09003-.13.15002,0,.04999.07001.10999.10999.15997.04001-.04999.09-.09998.13-.14001l.01001-.01001Z" style="fill: #f75b2c; stroke: #f75b2c; stroke-linecap: square; stroke-miterlimit: 10; stroke-width: 20px;"/>
</svg>