<?xml version="1.0" standalone="no"?>
<!DOCTYPE svg PUBLIC "-//W3C//DTD SVG 20010904//EN"
 "http://www.w3.org/TR/2001/REC-SVG-20010904/DTD/svg10.dtd">
<svg version="1.0" xmlns="http://www.w3.org/2000/svg"
 width="900.000000pt" height="900.000000pt" viewBox="0 0 900.000000 900.000000"
 preserveAspectRatio="xMidYMid meet">
<metadata>
Created by potrace 1.14, written by Peter Selinger 2001-2017
</metadata>
<g transform="translate(0.000000,900.000000) scale(0.100000,-0.100000)"
fill="#000000" stroke="none">
<path d="M4380 8794 c-63 -37 -155 -90 -205 -119 -49 -29 -265 -154 -480 -278
-1461 -843 -1799 -1037 -1806 -1037 -5 0 -9 -4 -9 -10 0 -5 -4 -10 -9 -10 -8
0 -195 -107 -866 -496 l-280 -162 -1 -2175 c0 -1197 2 -2180 5 -2186 6 -9 58
-41 216 -131 17 -9 118 -68 225 -130 220 -127 249 -144 305 -175 22 -13 102
-60 179 -104 76 -45 140 -81 141 -81 2 0 39 -21 82 -46 97 -58 373 -218 433
-252 25 -14 182 -105 350 -202 168 -97 325 -188 350 -202 25 -14 101 -58 170
-98 69 -40 141 -82 160 -93 19 -10 109 -62 200 -115 147 -85 213 -123 315
-182 17 -9 118 -68 225 -130 107 -62 246 -141 307 -177 l113 -65 137 80 c300
172 900 518 1318 760 242 140 456 264 475 274 55 32 563 324 690 398 145 84
318 184 785 454 l370 213 1 2176 c1 1196 -2 2180 -5 2185 -3 6 -62 43 -131 83
-69 39 -138 80 -155 89 -144 84 -358 207 -395 228 -25 14 -78 45 -118 69 -41
24 -76 43 -78 43 -3 0 -33 17 -67 39 -34 21 -201 118 -372 216 -170 98 -404
233 -520 300 -115 67 -230 133 -255 147 -25 14 -144 83 -265 153 -121 71 -240
139 -265 153 -25 14 -74 42 -109 64 -34 21 -65 38 -66 38 -2 0 -81 45 -176
101 -95 55 -191 111 -213 123 -23 13 -97 56 -166 96 -165 95 -183 106 -227
131 -21 12 -72 41 -114 65 -42 24 -78 44 -80 44 -2 0 -56 -30 -119 -66z m299
-385 c97 -56 188 -110 203 -120 15 -11 30 -19 33 -19 3 0 38 -20 78 -43 39
-24 79 -47 87 -50 8 -4 29 -15 45 -26 17 -10 46 -27 65 -38 80 -46 641 -369
840 -485 118 -69 235 -136 260 -150 25 -14 142 -82 261 -151 120 -69 234 -136
255 -148 22 -12 68 -38 104 -59 36 -21 81 -47 100 -58 19 -11 208 -120 420
-242 212 -123 401 -231 420 -242 19 -11 55 -33 80 -48 l45 -29 0 -2002 0
-2003 -50 -29 c-45 -27 -183 -107 -275 -159 -77 -44 -206 -119 -220 -128 -8
-5 -40 -23 -70 -40 -30 -17 -62 -34 -70 -40 -41 -26 -151 -90 -155 -90 -3 0
-22 -11 -43 -23 -33 -21 -232 -136 -727 -422 -593 -342 -951 -549 -960 -555
-5 -4 -32 -20 -60 -35 -42 -23 -628 -360 -735 -423 -19 -11 -52 -30 -73 -42
l-39 -21 -81 48 c-45 25 -149 86 -232 133 -82 48 -296 171 -475 275 -179 103
-343 198 -365 210 -22 13 -80 46 -130 75 -49 29 -103 60 -120 70 -16 9 -192
111 -390 225 -299 173 -519 300 -720 415 -16 10 -84 49 -150 87 -66 39 -140
81 -165 95 -25 14 -139 80 -255 148 -115 67 -235 136 -265 153 -30 16 -71 40
-90 52 l-35 22 1 1999 c1 1099 2 2002 3 2006 0 3 20 17 44 30 77 45 452 261
482 279 17 10 44 26 60 35 17 9 156 90 310 179 154 89 386 223 515 297 129 75
249 144 267 154 18 11 92 53 165 95 73 42 306 177 518 300 212 122 403 233
425 245 22 12 108 61 190 109 83 48 168 98 190 110 22 13 99 57 170 99 72 42
132 76 134 76 3 0 84 -46 180 -101z"/>
<path d="M5489 5726 c-2 -2 -24 -6 -49 -10 -211 -28 -408 -119 -529 -245 -76
-79 -143 -212 -156 -312 -7 -48 -7 -169 -1 -199 3 -14 8 -38 12 -55 8 -39 55
-146 71 -163 7 -7 13 -18 13 -23 0 -20 148 -158 215 -201 127 -82 237 -131
480 -214 269 -92 385 -152 432 -223 50 -74 60 -190 23 -267 -55 -112 -187
-166 -390 -160 -270 10 -413 124 -433 346 l-4 45 -252 3 -253 2 7 -62 c37
-377 298 -626 746 -713 18 -4 111 -8 204 -11 249 -5 394 24 568 114 185 97
302 256 324 444 26 220 -27 396 -164 544 -111 121 -334 242 -588 321 -310 96
-442 170 -497 277 -17 32 -20 53 -16 111 7 104 52 169 153 218 62 30 107 39
212 42 238 7 380 -101 407 -310 3 -22 5 -40 6 -40 0 0 111 0 248 0 l247 0 -3
55 c-15 248 -168 474 -397 584 -75 36 -171 71 -220 79 -16 3 -51 10 -77 15
-45 9 -331 15 -339 8z"/>
<path d="M2609 5698 c-1 -2 -2 -544 -3 -1205 l-1 -1203 247 0 c191 0 248 3
249 13 0 6 1 204 1 440 l0 427 197 0 196 0 71 -138 c107 -206 356 -694 368
-719 11 -23 11 -23 277 -23 218 0 268 3 272 14 3 7 2 17 -2 22 -5 5 -50 88
-101 184 -51 96 -109 207 -130 245 -39 73 -180 339 -245 462 -21 40 -37 74
-34 76 2 2 37 23 77 46 150 87 257 217 307 372 50 160 50 363 -2 519 -61 187
-220 338 -433 410 -149 51 -161 52 -752 57 -307 2 -559 3 -559 1z m1025 -415
c156 -36 240 -138 254 -308 18 -201 -74 -342 -253 -389 -42 -11 -114 -14 -293
-13 l-237 2 -1 363 -1 363 235 -2 c162 -1 254 -6 296 -16z"/>
</g>
</svg>
