<?xml version="1.0" encoding="UTF-8"?>
<svg id="Layer_1" xmlns="http://www.w3.org/2000/svg" version="1.1" viewBox="0 0 512 512">
  <!-- Generator: Adobe Illustrator 30.3.0, SVG Export Plug-In . SVG Version: 2.1.3 Build 182)  -->
  <defs>
    <style>
      .st0 {
        fill: #fe6000;
      }
    </style>
  </defs>
  <path class="st0" d="M455.7,16c20.9.4,40.1,19.3,40.3,40.3v400.3c-1.2,20.7-19.4,39-40.3,39.4H55.4c-20.7-1.2-39-19.4-39.4-40.3V55.4c1.3-20.7,19.5-38.7,40.3-39.4h399.4Z"/>
  <g>
    <path d="M402.1,360.3c-37.4,28-99.3,18.8-130.1-17.7l11-17.9c4.2-6.8,12.7-8,19.2-3.4l13.8,9.9c15,10.7,34.4,12.7,52,7.2,14.3-4.5,22.7-16.7,23.5-31.1,1.9-33.6-41.6-31.8-76.7-49.7-19-9.7-30.1-27.3-31.8-48.3-2.3-29.2,13.5-55.6,40.6-67.1,32.5-13.9,77.7-6.1,102.6,20.7l-9.3,18c-1.9,3.8-5.6,6.3-8.8,6.8-4.4.7-8.4-.8-11.8-3.4-16.2-12.7-36.3-17.3-55.9-10.5-16.3,5.7-24.7,25-15.3,39.8,4.7,7.3,13.3,11.6,21.2,14.3l33,11.6c30.7,10.8,52.2,28.5,50.9,63-.8,22.7-9.8,43.9-28.3,57.7Z"/>
    <path d="M188.5,271.7c17.4-5.7,32.2-15.9,41.2-31.5,12.5-21.7,12-48.6-.2-70.2-7.8-11.6-18.4-19.3-31.3-24.4-13.6-5-27.5-7.3-42.3-7.3h-74.5c0-.1,0,235.8,0,235.8h40.5s0-94.2,0-94.2h21.8c3.2,0,5.7,1.8,7.5,4.4l60.4,82.6c3.4,4.5,8.1,7.1,14.2,7.1h38.2s-75.6-102.2-75.6-102.2ZM155.7,247.2l-33.6.3v-75.4c0,0,34,0,34,0,7.7,0,15.2,1.4,22.2,4.1,12.2,4.2,19.6,14.2,20.6,27.6.9,13.1-2.9,25.3-12.9,33.2-8.6,6.8-19.3,10.1-30.2,10.2Z"/>
  </g>
</svg>