<?xml version="1.0" encoding="UTF-8"?><svg id="Layer_1_copy" xmlns="http://www.w3.org/2000/svg" viewBox="0 0 512 512"><defs><style>.cls-1{fill:#fe6000;}.cls-2{fill:#fe6001;}.cls-3{fill:#fefdfc;}</style></defs><path class="cls-1" d="M469,0c24.68,7.21,36.63,18.99,43,44v426c-.26.19-1.35,1.75-1.49,2.38-4.7,21.35-21.88,35.29-42.51,39.62H42c-.19-.29-1.7-1.25-2.78-1.5-18.46-4.31-34.24-19.52-37.9-38.93-.13-.68-1.05-2.24-1.32-2.56V42c.25-.19,1.35-1.76,1.48-2.36C6.18,18.26,23.37,4.36,44,0h425ZM436.04,353.25c8.35-13.46,10.4-28.52,10.03-44.24-.55-23.73-11.68-44.63-31.49-57.58-9.05-5.92-18.47-10.4-28.7-14.2l-29.18-10.84c-8.14-3.02-15.86-7.18-22.54-12.36-6.59-5.11-9.68-11.92-10.04-20.08-.5-11.22,5.29-20.73,16.07-25.03,15.61-6.23,33.54-5.19,48.95,1.73,10.44,5.64,18.35,13.14,26.21,22.79l30.88-30.79c-18.84-26.12-49.08-40.42-81.19-40.71-46.56-.42-86.88,24.96-86.16,75.05.97,67.76,69.4,68.38,106.19,90.78,9.93,6.05,15.11,15.45,15.67,26.63.6,11.82-4.98,21.51-15.66,26.99-10.14,5.21-21.45,6.19-33.09,5.81-17.43-.58-33.05-6.62-45.45-18.75-5.2-5.42-9.41-10.76-14.35-17.6l-31.2,31.12c19.1,25.63,43.92,43.25,76,47.02,36.43,4.28,78.36-2.4,99.04-35.73ZM270.85,386.47l-90.22-109.54c40.45-6.33,67.18-33.79,67.1-74.9.6-29.61-15.37-55.45-42.15-67.85-12.68-5.94-25.98-8.64-40.28-8.64h-98.67s0,260.99,0,260.99l45.12.04.02-108.52,13.64-.24,88.15,108.8,57.29-.13Z"/><path class="cls-3" d="M270.85,386.47l-57.29.13-88.15-108.8-13.64.24-.02,108.52-45.12-.04V125.54s98.67.01,98.67.01c14.3,0,27.6,2.71,40.28,8.64,26.78,12.39,42.75,38.24,42.15,67.85.08,41.11-26.65,68.57-67.1,74.9l90.22,109.54ZM187.71,232.36c10.38-6.67,15.05-17.47,14.93-29.34.76-20.33-14.02-36.42-34.59-36.49l-56.29-.19.02,71.89,52.19.03c8.32-.32,16.23-1.68,23.74-5.91Z"/><path class="cls-3" d="M436.04,353.25c-20.68,33.34-62.61,40.01-99.04,35.73-32.08-3.77-56.9-21.39-76-47.02l31.2-31.12c4.94,6.84,9.15,12.18,14.35,17.6,12.4,12.13,28.02,18.17,45.45,18.75,11.64.39,22.95-.6,33.09-5.81,10.68-5.48,16.25-15.17,15.66-26.99-.56-11.19-5.73-20.58-15.67-26.63-36.79-22.4-105.22-23.02-106.19-90.78-.72-50.09,39.6-75.47,86.16-75.05,32.12.29,62.36,14.6,81.19,40.71l-30.88,30.79c-7.86-9.65-15.77-17.15-26.21-22.79-15.41-6.92-33.34-7.96-48.95-1.73-10.78,4.3-16.56,13.81-16.07,25.03.36,8.15,3.45,14.97,10.04,20.08,6.68,5.18,14.4,9.33,22.54,12.36l29.18,10.84c10.23,3.8,19.65,8.28,28.7,14.2,19.81,12.95,30.94,33.85,31.49,57.58.36,15.72-1.68,30.78-10.03,44.24Z"/><path class="cls-2" d="M187.71,232.36c-7.52,4.22-15.42,5.59-23.74,5.91l-52.19-.03-.02-71.89,56.29.19c20.57.07,35.36,16.15,34.59,36.49.12,11.86-4.54,22.66-14.93,29.34Z"/></svg>